HIERARCHY
ROOT Hips
{
	OFFSET -21.947001 39.810204 44.525997
	CHANNELS 6 Xposition Yposition Zposition Zrotation Xrotation Yrotation
	JOINT Chest
	{
		OFFSET -0.201599 0.334099 6.453201
		CHANNELS 6 Xposition Yposition Zposition Zrotation Xrotation Yrotation
		JOINT Chest2
		{
			OFFSET 0.000000 0.000000 3.568001
			CHANNELS 6 Xposition Yposition Zposition Zrotation Xrotation Yrotation
			JOINT Neck
			{
				OFFSET 0.000000 0.000000 8.296402
				CHANNELS 6 Xposition Yposition Zposition Zrotation Xrotation Yrotation
				JOINT Head
				{
					OFFSET 0.000000 0.000000 2.173901
					CHANNELS 6 Xposition Yposition Zposition Zrotation Xrotation Yrotation
					End Site
					{
						OFFSET 0.000000 0.000000 7.891998
					}
				}
			}
			JOINT LeftCollar
			{
				OFFSET 1.927601 0.221401 6.049000
				CHANNELS 6 Xposition Yposition Zposition Zrotation Xrotation Yrotation
				JOINT LeftShoulder
				{
					OFFSET 4.959700 0.000000 0.000000
					CHANNELS 6 Xposition Yposition Zposition Zrotation Xrotation Yrotation
					JOINT LeftElbow
					{
						OFFSET 0.000000 0.000000 -8.654202
						CHANNELS 6 Xposition Yposition Zposition Zrotation Xrotation Yrotation
						JOINT LeftWrist
						{
							OFFSET 0.000000 0.000000 -13.864101
							CHANNELS 6 Xposition Yposition Zposition Zrotation Xrotation Yrotation
							End Site
							{
								OFFSET 0.000000 0.000000 -2.173901
							}
						}
					}
				}
			}
			JOINT RightCollar
			{
				OFFSET -3.155701 -0.764999 6.687801
				CHANNELS 6 Xposition Yposition Zposition Zrotation Xrotation Yrotation
				JOINT RightShoulder
				{
					OFFSET -3.592899 0.000000 0.000000
					CHANNELS 6 Xposition Yposition Zposition Zrotation Xrotation Yrotation
					JOINT RightElbow
					{
						OFFSET 0.000000 0.000000 -10.352398
						CHANNELS 6 Xposition Yposition Zposition Zrotation Xrotation Yrotation
						JOINT RightWrist
						{
							OFFSET 0.000000 0.000000 -12.750301
							CHANNELS 6 Xposition Yposition Zposition Zrotation Xrotation Yrotation
							End Site
							{
								OFFSET 0.000000 0.000000 -2.173901
							}
						}
					}
				}
			}
		}
	}
	JOINT LeftHip
	{
		OFFSET 2.460600 -0.518101 -2.735500
		CHANNELS 6 Xposition Yposition Zposition Zrotation Xrotation Yrotation
		JOINT LeftKnee
		{
			OFFSET 0.000000 -0.000004 -17.005899
			CHANNELS 6 Xposition Yposition Zposition Zrotation Xrotation Yrotation
			JOINT LeftAnkle
			{
				OFFSET 0.000000 0.000000 -19.194401
				CHANNELS 6 Xposition Yposition Zposition Zrotation Xrotation Yrotation
				End Site
				{
					OFFSET 0.000000 -8.134600 0.000000
				}
			}
		}
	}
	JOINT RightHip
	{
		OFFSET -3.115499 -0.679600 -2.320301
		CHANNELS 6 Xposition Yposition Zposition Zrotation Xrotation Yrotation
		JOINT RightKnee
		{
			OFFSET 0.000000 -0.000004 -17.680401
			CHANNELS 6 Xposition Yposition Zposition Zrotation Xrotation Yrotation
			JOINT RightAnkle
			{
				OFFSET 0.000000 0.000000 -16.993797
				CHANNELS 6 Xposition Yposition Zposition Zrotation Xrotation Yrotation
				End Site
				{
					OFFSET 0.000000 -8.842300 0.000000
				}
			}
		}
	}
}
MOTION
Frames: 4
Frame Time: 0.041667
41.703903 -5.566895 43.792393 2771.661477 -9.775846 1.130027 -0.201598 0.334097 6.453201 -33.303856 14.386330 8.993432 -0.000003 0.000005 3.568002 3.215593 -7.909339 -0.646327 0.000001 0.000001 8.296400 223.711030 -178.915330 167.294159 -0.000001 0.000000 2.173896 3.320748 3.942151 6.579107 1.927597 0.221402 6.049000 -22.740688 3.676423 8.188422 4.959700 0.000000 -0.000002 171.561743 182.667098 71.641246 0.000000 -0.000006 -8.654204 43.524035 -9.789077 4.229068 -0.000006 -0.000004 -13.864100 3912.781728 -16.095715 29.094164 -3.155707 -0.764999 6.687805 26.303747 0.285694 -3.173490 -3.592897 0.000003 0.000002 -225.009695 173.463186 278.989622 -0.000001 0.000001 -10.352401 -367.755280 -8.308935 -354.279754 0.000003 -0.000001 -12.750294 199.804398 171.094326 -205.234276 2.460599 -0.518107 -2.735503 -1104.052869 3.982170 1.452804 -0.000001 -0.000002 -17.005899 875.539929 168.029689 -163.672506 -0.000011 0.000003 -19.194403 225.962260 160.510880 191.919997 -3.115496 -0.679602 -2.320301 -445.839396 -49.064278 -90.255711 -0.000003 0.000000 -17.680399 -777.410383 168.926411 -222.745173 0.000001 -0.000002 -16.993790 1391.004525 36.167279 -409.520302
41.672600 -5.545696 43.808197 2771.368380 -9.901769 1.159489 -0.201602 0.334101 6.453197 -33.129102 14.426142 9.051699 0.000004 0.000001 3.568002 3.254783 -8.010401 -0.763676 0.000004 0.000007 8.296398 223.824917 -179.113651 167.161380 0.000001 0.000004 2.173907 3.240281 4.008188 6.566721 1.927605 0.221404 6.049000 -22.978623 3.812383 8.793098 4.959710 -0.000001 0.000009 171.754765 182.858999 71.268099 -0.000001 -0.000002 -8.654202 43.553476 -9.849344 4.256235 -0.000007 0.000006 -13.864095 3912.512892 -16.016049 28.984000 -3.155704 -0.765003 6.687796 26.610069 0.467838 -3.482937 -3.592893 0.000002 0.000010 -225.376736 173.929688 279.548168 -0.000005 0.000001 -10.352402 -367.540402 -8.165071 -354.314451 0.000003 -0.000002 -12.750303 199.553662 171.421970 -205.274628 2.460597 -0.518095 -2.735505 -1104.307608 4.160325 1.542089 -0.000002 -0.000004 -17.005896 876.080880 167.910925 -163.819697 -0.000006 -0.000003 -19.194403 225.552804 160.642279 192.397959 -3.115499 -0.679594 -2.320304 -445.783989 -49.181293 -90.328289 -0.000007 -0.000007 -17.680395 -777.149688 169.297973 -222.815374 0.000001 -0.000003 -16.993788 1392.587599 37.554047 -411.475376
41.650200 -5.530102 43.816395 2771.211668 -9.930762 1.257622 -0.201596 0.334102 6.453207 -32.859248 14.388755 8.792415 0.000003 0.000002 3.568005 3.209092 -7.936152 -0.671952 0.000001 -0.000002 8.296402 223.837580 -179.180819 167.118459 -0.000003 -0.000003 2.173907 3.189336 3.962690 6.608081 1.927594 0.221400 6.049007 -23.035214 3.854562 8.720190 4.959699 0.000001 0.000010 171.778684 182.972025 71.492041 0.000003 -0.000006 -8.654207 43.581002 -9.972063 4.254896 -0.000009 -0.000004 -13.864099 3912.192037 -15.980971 29.016740 -3.155708 -0.765003 6.687805 26.479935 0.561333 -3.266969 -3.592905 -0.000008 0.000008 -225.346833 174.137927 279.732146 -0.000006 0.000000 -10.352399 -367.237798 -8.090602 -354.397534 0.000004 0.000003 -12.750299 199.412359 171.480068 -205.293179 2.460603 -0.518099 -2.735507 -1104.495028 4.248935 1.519840 -0.000002 -0.000010 -17.005901 876.423209 167.798200 -163.923638 0.000000 -0.000000 -19.194397 225.237359 160.710253 192.818890 -3.115493 -0.679596 -2.320304 -446.038837 -49.237150 -90.556287 -0.000006 -0.000007 -17.680397 -778.182905 168.844626 -222.990800 0.000002 -0.000004 -16.993790 1394.972482 39.103103 -412.476927
41.637802 -5.519493 43.825993 2771.160961 -9.863312 1.299753 -0.201598 0.334098 6.453201 -32.709469 14.287245 8.685524 0.000004 0.000001 3.567995 3.093794 -7.894414 -0.676943 0.000001 -0.000001 8.296399 223.967859 -179.167118 167.059023 -0.000001 0.000005 2.173902 3.098667 3.936315 6.668513 1.927599 0.221405 6.048997 -22.911146 3.892230 8.498232 4.959704 -0.000000 0.000005 171.653036 183.062812 71.792398 0.000005 0.000003 -8.654195 43.818942 -10.040457 4.271567 -0.000001 -0.000006 -13.864099 3911.628574 -15.952960 29.003555 -3.155705 -0.765002 6.687803 26.445622 0.602788 -3.145959 -3.592901 0.000004 0.000012 -225.305920 174.460298 279.914785 -0.000002 0.000000 -10.352399 -366.848586 -7.955418 -354.389119 0.000005 -0.000000 -12.750306 199.213860 171.705683 -205.437597 2.460600 -0.518099 -2.735506 -1104.748346 4.236670 1.454188 -0.000001 -0.000006 -17.005898 876.724393 167.811478 -163.927573 0.000000 -0.000004 -19.194397 225.213836 160.668766 192.609149 -3.115496 -0.679598 -2.320307 -446.415044 -49.415391 -90.893958 -0.000004 -0.000005 -17.680401 -778.917833 168.475126 -223.256276 0.000004 0.000000 -16.993790 1397.017386 40.328569 -413.742834
